<svg width="180" height="60" viewBox="0 0 180 60" fill="none" xmlns="http://www.w3.org/2000/svg">
<g clip-path="url(#clip0_417_3823)">
<path d="M67.7688 32.1375C67.7688 28.2064 70.6861 25.5043 74.3877 25.5043C76.0283 25.5043 77.4003 26.1576 78.0649 26.8777V25.6599H81.4533V38.6152H78.0649V37.3717C77.4361 38.0897 76.0653 38.7708 74.3877 38.7708C70.7047 38.7708 67.7688 36.085 67.7688 32.1375ZM78.0386 32.1375C78.0386 29.9237 76.5582 28.6138 74.624 28.6138C72.6674 28.6138 71.1046 29.9117 71.1046 32.1375C71.1046 34.3238 72.6966 35.6615 74.624 35.6615C76.5253 35.6615 78.0386 34.3177 78.0386 32.1375ZM83.0617 32.1375C83.0617 28.4059 85.8797 25.5043 89.8648 25.5043C92.7529 25.5043 94.8213 26.943 95.827 29.1579L92.859 30.6606C92.3576 29.3193 91.2079 28.6397 89.8384 28.6397C87.9165 28.6397 86.4502 30.0089 86.4502 32.1375C86.4502 34.2553 87.9385 35.6098 89.8384 35.6098C91.2265 35.6098 92.3536 34.9674 92.859 33.6145L95.827 35.1174C94.8235 37.3283 92.758 38.7708 89.8648 38.7708C85.8488 38.7708 83.0617 35.841 83.0617 32.1375ZM100.752 20.4777V26.9814C101.619 26.0551 102.857 25.5043 104.324 25.5043C107.356 25.5043 109.446 27.3574 109.446 30.8422V38.6152H106.084V31.6193C106.084 29.6333 105.226 28.6397 103.51 28.6397C101.763 28.6397 100.752 29.9199 100.752 31.6193V38.6152H97.3898V20.4777H100.752ZM111.067 22.136C111.067 20.8939 112.074 19.9595 113.248 19.9595C114.479 19.9595 115.454 20.9189 115.454 22.136C115.454 23.341 114.492 24.3125 113.248 24.3125C112.087 24.3125 111.067 23.39 111.067 22.136ZM114.955 25.6599V38.6152H111.593V25.6599H114.955ZM133.387 25.6599L136.328 34.0291L139.296 25.6599H142.842L138.009 38.6152H134.647L129.814 25.6599H133.387ZM142.632 32.1375C142.632 28.3602 145.587 25.5043 149.33 25.5043C153.196 25.5043 156.001 28.5314 156.001 32.0599C156.001 32.4227 155.975 32.7595 155.922 33.0702H146.125C146.355 34.5273 147.607 35.7912 149.54 35.7912C150.979 35.7912 152.071 35.1609 152.718 34.1327L155.213 36.1019C153.964 37.791 152.083 38.7708 149.566 38.7708C145.631 38.7708 142.632 35.9393 142.632 32.1375ZM149.33 28.3805C147.892 28.3805 146.616 29.2247 146.257 30.6089H152.377C152.042 29.3563 150.907 28.3805 149.33 28.3805ZM116.656 32.1375C116.656 28.3602 119.61 25.5043 123.353 25.5043C127.219 25.5043 130.024 28.5314 130.024 32.0599C130.024 32.4227 129.998 32.7595 129.946 33.0702H120.149C120.378 34.5273 121.631 35.7912 123.563 35.7912C125.002 35.7912 126.095 35.1609 126.742 34.1327L129.237 36.1019C127.988 37.791 126.107 38.7708 123.589 38.7708C119.654 38.7708 116.656 35.9393 116.656 32.1375ZM123.353 28.3805C121.915 28.3805 120.639 29.2247 120.28 30.6089H126.4C126.065 29.3563 124.931 28.3805 123.353 28.3805Z" fill="#191B18" style="fill:#191B18;fill:color(display-p3 0.0980 0.1059 0.0941);fill-opacity:1;"/>
<path d="M55.4181 19.1902C54.4637 18.7235 53.2993 19.1155 52.8222 20.0677C52.345 21.0012 52.7458 22.14 53.7193 22.6068C54.311 22.8868 56.0098 23.4096 57.6131 23.8763L50.6462 26.2287C48.7565 20.8331 46.9814 15.8296 46.9814 15.8296C46.6569 14.9148 45.6452 14 44.29 14C42.9348 14 41.9041 14.9148 41.5987 15.8296C41.5987 15.8296 38.5638 24.4364 36.216 31.0828L28.352 33.734C25.8324 34.5928 24 36.9265 24 39.6896C24 42.4527 26.8822 46 30.4516 46C34.0209 46 35.6816 44.2264 36.5596 41.7433L37.1895 39.951L39.27 34.0513L48.2602 31.0268L51.1806 39.3162H55.2654C55.2654 39.3162 53.6811 34.8355 51.906 29.7946L58.8729 27.4422C57.8994 28.7678 56.8878 30.224 56.6015 30.7841C56.1243 31.7176 56.5251 32.8565 57.4986 33.3232C58.453 33.79 59.6173 33.3979 60.0945 32.4457L65 23.3722L55.4372 19.1715L55.4181 19.1902ZM33.5247 38.7188L32.8948 40.5111C32.5512 41.5006 31.5777 42.21 30.4516 42.21C29.3254 42.21 27.8748 41.0712 27.8748 39.6896C27.8748 38.3081 28.6001 37.6546 29.6117 37.2999L34.6127 35.6196C33.9446 37.5053 33.5247 38.7188 33.5247 38.7188ZM41.1024 28.8051C41.9232 26.4527 44.29 19.0408 44.29 19.0408C44.29 19.0408 45.9888 24.3991 47.0005 27.4422L40.8543 29.5146L41.1024 28.8051Z" fill="#191B18" style="fill:#191B18;fill:color(display-p3 0.0980 0.1059 0.0941);fill-opacity:1;"/>
</g>
<defs>
<clipPath id="clip0_417_3823">
<rect width="132" height="32" fill="white" style="fill:white;fill-opacity:1;" transform="translate(24 14)"/>
</clipPath>
</defs>
</svg>
