<svg width="180" height="60" viewBox="0 0 180 60" fill="none" xmlns="http://www.w3.org/2000/svg">
<path d="M28.5 29.8187C28.5 34.9791 32.1962 40 38.477 40C41.1166 40 43.1728 39.1078 44.4235 37.8531V34.8117H44.2576C43.2015 36.569 41.0338 37.5174 38.9773 37.5174C34.4751 37.5174 31.5292 33.1939 31.5292 28.954C31.5292 24.4909 34.4473 21.8968 37.8934 21.8968C40.5158 21.8968 42.7639 23.4555 44.1773 25.8178H44.4235V21.6889C42.7627 20.5404 40.4845 20 38.3659 20C33.0855 20 28.5 23.8773 28.5 29.8187Z" fill="#191B18" style="fill:#191B18;fill:color(display-p3 0.0980 0.1059 0.0941);fill-opacity:1;"/>
<path d="M46.3518 39.428L46.3378 39.4421V39.6095H50.6454V39.4421C50.2563 39.0795 49.8395 38.689 49.8117 34.5049V20H49.5893L46.0876 21.7852V22.0084C46.4489 22.0363 47.1437 22.622 47.1437 25.9972V34.5049C47.1437 38.6348 46.7105 39.0687 46.3518 39.428Z" fill="#191B18" style="fill:#191B18;fill:color(display-p3 0.0980 0.1059 0.0941);fill-opacity:1;"/>
<path fill-rule="evenodd" clip-rule="evenodd" d="M58.6754 40C54.7569 40 51.5331 36.9874 51.5887 32.636C51.6443 28.4519 54.7847 25.4951 58.6754 25.4951C62.5662 25.4951 65.7622 28.4798 65.7344 32.8312C65.651 37.0432 62.5106 40 58.6754 40ZM58.9256 38.2427C61.2878 38.2427 62.733 36.0669 62.733 33.5565C62.7607 30.7392 61.26 27.2524 58.3697 27.2524C56.0631 27.2524 54.5901 29.3724 54.5623 31.9107C54.5346 34.7838 56.0631 38.2427 58.9256 38.2427Z" fill="#191B18" style="fill:#191B18;fill:color(display-p3 0.0980 0.1059 0.0941);fill-opacity:1;"/>
<path d="M66.8591 38.8006C67.6651 39.47 69.5827 40 71.2223 40C73.8903 40 76.1414 38.4937 76.1414 35.7322C76.1414 33.3054 74.6407 32.4128 72.8342 31.6318L71.0278 30.8508C69.8328 30.3208 69.3047 29.9024 69.3047 29.0377C69.3047 27.9498 70.2774 27.2524 71.4447 27.2524C73.4178 27.2524 74.8908 28.8424 75.3354 30.0418H75.5022V26.5272C74.6962 26.053 73.1677 25.4951 71.5558 25.4951C68.7767 25.4951 66.8591 27.0851 66.8591 29.5397C66.8591 31.6876 68.3043 32.7197 69.805 33.3612L71.4447 34.0586C72.862 34.6722 73.6957 35.2022 73.6957 36.2622C73.6957 37.6848 72.4451 38.2148 71.1945 38.2148C68.9712 38.2148 67.4983 36.4854 67.0537 35.1464H66.8591V38.8006Z" fill="#191B18" style="fill:#191B18;fill:color(display-p3 0.0980 0.1059 0.0941);fill-opacity:1;"/>
<path fill-rule="evenodd" clip-rule="evenodd" d="M84.6475 40C80.1453 40 77.0883 36.7922 77.0883 32.5244C77.0883 28.5077 80.1175 25.4951 83.786 25.4951C87.8435 25.4951 89.5387 28.424 89.3442 31.1855L88.8718 31.8828H79.8396V32.1618C79.8396 34.8117 81.7016 37.629 85.0366 37.629C86.6762 37.629 88.0936 37.0711 88.7328 36.0391H88.9273V38.6332C88.0936 39.4142 86.5651 40 84.6475 40ZM80.0897 30.1813H85.6758C86.2872 30.1813 86.5373 29.9024 86.4817 29.3724C86.315 28.2287 85.3423 27.2524 83.6748 27.2524C81.7294 27.2524 80.59 28.5077 80.0897 30.1813Z" fill="#191B18" style="fill:#191B18;fill:color(display-p3 0.0980 0.1059 0.0941);fill-opacity:1;"/>
<path d="M91.9076 35.7601C91.9076 38.94 94.0197 40 96.0484 40C97.2157 40 98.2162 39.6932 98.9665 39.0516V36.7364H98.8276C98.0216 37.5453 97.299 37.8522 96.5487 37.8522C95.1313 37.8522 94.5755 36.848 94.5755 35.3975V27.6151H98.9665V25.8856H94.5755V22.3989H93.0748L91.8798 25.8856H89.5453V27.6151H91.9076V35.7601Z" fill="#191B18" style="fill:#191B18;fill:color(display-p3 0.0980 0.1059 0.0941);fill-opacity:1;"/>
<path d="M104.161 25.9414L103.105 24.6304V33.8912C103.105 38.6332 103.55 39.0516 104.05 39.4421V39.6095H100.326V39.4421C100.826 39.0516 101.271 38.6332 101.271 33.8912V22.5105L99.4883 20.6137V20.3905H103.439L114.027 33.5844V26.1088C114.027 21.3668 113.582 20.9205 113.082 20.5579V20.3905H116.806V20.5579C116.278 20.9205 115.861 21.3668 115.861 26.1088V40H115.528L104.161 25.9414Z" fill="#191B18" style="fill:#191B18;fill:color(display-p3 0.0980 0.1059 0.0941);fill-opacity:1;"/>
<path fill-rule="evenodd" clip-rule="evenodd" d="M117.357 32.636C117.301 36.9874 120.525 40 124.444 40C128.279 40 131.419 37.0432 131.503 32.8312C131.53 28.4798 128.334 25.4951 124.444 25.4951C120.553 25.4951 117.413 28.4519 117.357 32.636ZM128.501 33.5565C128.501 36.0669 127.056 38.2427 124.694 38.2427C121.831 38.2427 120.303 34.7838 120.331 31.9107C120.358 29.3724 121.831 27.2524 124.138 27.2524C127.028 27.2524 128.529 30.7392 128.501 33.5565Z" fill="#191B18" style="fill:#191B18;fill:color(display-p3 0.0980 0.1059 0.0941);fill-opacity:1;"/>
<path d="M133.297 31.1297C131.713 27.3361 131.24 26.4993 130.657 26.053V25.8856H135.464V26.053C135.214 26.2483 135.048 26.583 135.048 27.113C135.048 27.7824 135.27 28.7308 135.937 30.5718L137.577 35.1464L140.217 28.7308L139.045 25.8856H141.744L145.553 35.0628L147.109 30.7392C147.887 28.6192 148.109 27.5593 148.109 26.9456C148.109 26.5272 147.971 26.1925 147.804 26.053V25.8856H151.5V26.053C150.833 26.4993 150.388 27.2245 148.749 31.1297L145.191 40H144.886L141.078 30.6555L137.215 40H136.937L133.297 31.1297Z" fill="#191B18" style="fill:#191B18;fill:color(display-p3 0.0980 0.1059 0.0941);fill-opacity:1;"/>
</svg>
