<svg width="181" height="60" viewBox="0 0 181 60" fill="none" xmlns="http://www.w3.org/2000/svg">
<path d="M48.7869 33.1111L49.1332 32.7654V27.2346L48.7869 26.8889H43.2472L42.9009 27.2346V32.7654L43.2472 33.1111H48.7869Z" fill="#191B18" style="fill:#191B18;fill:color(display-p3 0.0980 0.1059 0.0941);fill-opacity:1;"/>
<path d="M38.3999 34.8395L38.7461 34.4938H42.0354L42.3816 34.8395V38.1235L42.0354 38.4691H38.7461L38.3999 38.1235V34.8395Z" fill="#191B18" style="fill:#191B18;fill:color(display-p3 0.0980 0.1059 0.0941);fill-opacity:1;"/>
<path d="M42.0354 25.5062L42.3816 25.1605V21.8765L42.0354 21.5309H38.7461L38.3999 21.8765V25.1605L38.7461 25.5062H42.0354Z" fill="#191B18" style="fill:#191B18;fill:color(display-p3 0.0980 0.1059 0.0941);fill-opacity:1;"/>
<path d="M56.4041 26.0247L56.0578 25.679V20.321L55.7116 19.9753H50.1719L49.8256 19.6296V16.3457L49.4794 16H45.6708L45.3246 16.3457V20.321L45.6708 20.6667H49.8256L50.1719 21.0123V26.3704L50.5181 26.716H56.4041L56.7503 27.0617V32.9383L56.4041 33.284C56.4041 33.284 50.7093 33.284 50.5181 33.284L50.1719 33.6296V38.9877L49.8256 39.3333H45.6708L45.3246 39.679V43.6543L45.6708 44H49.4794L49.8256 43.6543V40.3704L50.1719 40.0247H55.7116L56.0578 39.679V34.321L56.4041 33.9753H62.6363L62.9825 33.6296V26.3704L62.6363 26.0247H56.4041Z" fill="#191B18" style="fill:#191B18;fill:color(display-p3 0.0980 0.1059 0.0941);fill-opacity:1;"/>
<path fill-rule="evenodd" clip-rule="evenodd" d="M72.1577 19.9753H86.8294L92.0229 25.1605V34.8395L86.8294 40.0247H72.1577V19.9753ZM76.4856 24.4691H84.9684L87.2189 26.716V33.284L84.9684 35.5309H76.4856V24.4691Z" fill="#191B18" style="fill:#191B18;fill:color(display-p3 0.0980 0.1059 0.0941);fill-opacity:1;"/>
<path d="M99.5967 19.9753V24.2963H95.2688V19.9753H99.5967Z" fill="#191B18" style="fill:#191B18;fill:color(display-p3 0.0980 0.1059 0.0941);fill-opacity:1;"/>
<path fill-rule="evenodd" clip-rule="evenodd" d="M129.156 40.0247H139.543L142.4 37.1728V26.8025L139.543 23.9506H129.156L126.3 26.8025V37.1728L129.156 40.0247ZM130.77 27.8395H137.93L138.505 28.4133V35.562L137.93 36.1358H130.77L130.195 35.562V28.4133L130.77 27.8395Z" fill="#191B18" style="fill:#191B18;fill:color(display-p3 0.0980 0.1059 0.0941);fill-opacity:1;"/>
<path d="M107.82 35.1852H112.321V40.0247H107.474V36.7408L107.127 36.3951H103.146V19.9753H107.474V23.9506H112.321V27.9259H107.474V34.8395L107.82 35.1852Z" fill="#191B18" style="fill:#191B18;fill:color(display-p3 0.0980 0.1059 0.0941);fill-opacity:1;"/>
<path d="M124.093 35.1852H119.592L119.246 34.8395V27.9259H124.093V23.9506H119.246V19.9753H115.004V36.3951H118.899L119.246 36.7408V40.0247H124.093V35.1852Z" fill="#191B18" style="fill:#191B18;fill:color(display-p3 0.0980 0.1059 0.0941);fill-opacity:1;"/>
<path d="M99.5967 40.0247V27.5803H95.2688V40.0247H99.5967Z" fill="#191B18" style="fill:#191B18;fill:color(display-p3 0.0980 0.1059 0.0941);fill-opacity:1;"/>
</svg>
