<svg width="181" height="60" viewBox="0 0 181 60" fill="none" xmlns="http://www.w3.org/2000/svg">
<path d="M148.97 20.3821H150.1V30.0203H148.97V20.3821Z" fill="#191B18" style="fill:#191B18;fill:color(display-p3 0.0980 0.1059 0.0941);fill-opacity:1;"/>
<path d="M148.515 28.9877V30.0204H147.895C147.445 30.0204 147.124 29.9286 146.931 29.745C146.738 29.5614 146.637 29.2906 146.628 28.9327C146.086 29.7129 145.301 30.103 144.272 30.103C143.492 30.103 142.863 29.9194 142.385 29.5523C141.917 29.1851 141.683 28.6848 141.683 28.0514C141.683 27.3446 141.922 26.8031 142.399 26.4267C142.886 26.0504 143.588 25.8622 144.507 25.8622H146.573V25.3803C146.573 24.9213 146.417 24.5633 146.104 24.3063C145.801 24.0493 145.374 23.9208 144.823 23.9208C144.337 23.9208 143.933 24.0309 143.611 24.2512C143.299 24.4624 143.106 24.7469 143.033 25.1049H141.903C141.986 24.4165 142.289 23.8795 142.812 23.494C143.345 23.1084 144.034 22.9157 144.879 22.9157C145.778 22.9157 146.472 23.136 146.959 23.5766C147.454 24.008 147.702 24.6322 147.702 25.4491V28.4783C147.702 28.8179 147.858 28.9877 148.171 28.9877H148.515ZM146.573 26.8122H144.396C143.35 26.8122 142.826 27.2024 142.826 27.9826C142.826 28.3314 142.964 28.6114 143.239 28.8225C143.515 29.0336 143.887 29.1392 144.355 29.1392C145.044 29.1392 145.586 28.9602 145.981 28.6022C146.375 28.235 146.573 27.7531 146.573 27.1565V26.8122Z" fill="#191B18" style="fill:#191B18;fill:color(display-p3 0.0980 0.1059 0.0941);fill-opacity:1;"/>
<path d="M138.535 24.0304H137.268V22.9978H138.535V21.0288H139.665V22.9978H141.442V24.0304H139.665V28.1749C139.665 28.4686 139.72 28.6797 139.83 28.8082C139.95 28.9275 140.152 28.9872 140.436 28.9872H141.662V30.0199H140.367C139.706 30.0199 139.233 29.873 138.949 29.5793C138.673 29.2855 138.535 28.822 138.535 28.1886V24.0304Z" fill="#191B18" style="fill:#191B18;fill:color(display-p3 0.0980 0.1059 0.0941);fill-opacity:1;"/>
<path d="M136.368 20.2858C136.579 20.2858 136.754 20.3546 136.892 20.4923C137.029 20.63 137.098 20.8044 137.098 21.0155C137.098 21.2266 137.029 21.401 136.892 21.5387C136.754 21.6764 136.579 21.7453 136.368 21.7453C136.157 21.7453 135.983 21.6764 135.845 21.5387C135.707 21.401 135.638 21.2266 135.638 21.0155C135.638 20.8044 135.707 20.63 135.845 20.4923C135.983 20.3546 136.157 20.2858 136.368 20.2858ZM135.803 22.9982H136.933V30.0204H135.803V22.9982Z" fill="#191B18" style="fill:#191B18;fill:color(display-p3 0.0980 0.1059 0.0941);fill-opacity:1;"/>
<path d="M131.551 22.9157C132.203 22.9157 132.782 23.0579 133.287 23.3425C133.801 23.6271 134.2 24.0401 134.485 24.5817C134.779 25.1233 134.926 25.7658 134.926 26.5093C134.926 27.2161 134.779 27.8403 134.485 28.3819C134.2 28.9235 133.801 29.3457 133.287 29.6486C132.772 29.9516 132.194 30.103 131.551 30.103C130.982 30.103 130.495 30.002 130.091 29.8001C129.687 29.589 129.37 29.3044 129.141 28.9464V32.7742H128.011V22.9983H128.989L129.141 24.1273C129.728 23.3195 130.532 22.9157 131.551 22.9157ZM131.441 29.0979C132.139 29.0979 132.699 28.8592 133.121 28.3819C133.553 27.8954 133.769 27.2712 133.769 26.5093C133.769 25.7475 133.553 25.1279 133.121 24.6505C132.699 24.164 132.139 23.9208 131.441 23.9208C130.991 23.9208 130.587 24.0309 130.229 24.2512C129.88 24.4624 129.609 24.7653 129.416 25.16C129.223 25.5455 129.127 25.9861 129.127 26.4818C129.127 26.9867 129.223 27.441 129.416 27.8449C129.609 28.2396 129.88 28.5471 130.229 28.7674C130.587 28.9877 130.991 29.0979 131.441 29.0979Z" fill="#191B18" style="fill:#191B18;fill:color(display-p3 0.0980 0.1059 0.0941);fill-opacity:1;"/>
<path d="M127.556 28.9877V30.0204H126.936C126.486 30.0204 126.164 29.9286 125.972 29.745C125.779 29.5614 125.678 29.2906 125.669 28.9327C125.127 29.7129 124.342 30.103 123.313 30.103C122.533 30.103 121.904 29.9194 121.426 29.5523C120.958 29.1851 120.723 28.6848 120.723 28.0514C120.723 27.3446 120.962 26.8031 121.44 26.4267C121.926 26.0504 122.629 25.8622 123.547 25.8622H125.613V25.3803C125.613 24.9213 125.457 24.5633 125.145 24.3063C124.842 24.0493 124.415 23.9208 123.864 23.9208C123.377 23.9208 122.973 24.0309 122.652 24.2512C122.34 24.4624 122.147 24.7469 122.073 25.1049H120.944C121.027 24.4165 121.33 23.8795 121.853 23.494C122.386 23.1084 123.074 22.9157 123.919 22.9157C124.819 22.9157 125.512 23.136 125.999 23.5766C126.495 24.008 126.743 24.6322 126.743 25.4491V28.4783C126.743 28.8179 126.899 28.9877 127.211 28.9877H127.556ZM125.613 26.8122H123.437C122.39 26.8122 121.867 27.2024 121.867 27.9826C121.867 28.3314 122.005 28.6114 122.28 28.8225C122.556 29.0336 122.927 29.1392 123.396 29.1392C124.085 29.1392 124.626 28.9602 125.021 28.6022C125.416 28.235 125.613 27.7531 125.613 27.1565V26.8122Z" fill="#191B18" style="fill:#191B18;fill:color(display-p3 0.0980 0.1059 0.0941);fill-opacity:1;"/>
<path d="M111.426 25.2019C111.426 24.2381 111.615 23.3845 111.991 22.6409C112.368 21.8974 112.905 21.3237 113.603 20.9198C114.301 20.5068 115.109 20.3002 116.027 20.3002C117.092 20.3002 117.983 20.5894 118.699 21.1677C119.425 21.746 119.879 22.5354 120.063 23.5359H118.865C118.69 22.8658 118.346 22.3426 117.832 21.9663C117.327 21.5899 116.707 21.4017 115.972 21.4017C115.311 21.4017 114.728 21.5624 114.223 21.8836C113.718 22.2049 113.327 22.6547 113.052 23.233C112.786 23.8021 112.652 24.4584 112.652 25.2019C112.652 25.9363 112.786 26.5926 113.052 27.1709C113.327 27.7492 113.718 28.199 114.223 28.5202C114.728 28.8415 115.311 29.0022 115.972 29.0022C116.716 29.0022 117.336 28.8186 117.832 28.4514C118.328 28.075 118.667 27.5472 118.851 26.868H120.049C119.866 27.8685 119.416 28.6579 118.699 29.2362C117.992 29.8145 117.102 30.1037 116.027 30.1037C115.109 30.1037 114.301 29.9017 113.603 29.4978C112.905 29.0848 112.368 28.5111 111.991 27.7767C111.615 27.0332 111.426 26.1749 111.426 25.2019Z" fill="#191B18" style="fill:#191B18;fill:color(display-p3 0.0980 0.1059 0.0941);fill-opacity:1;"/>
<path d="M90.1795 20.4483H96.8131C98.7241 20.4483 100.407 20.8577 101.863 21.6763C103.338 22.4767 104.466 23.6046 105.248 25.0599C106.049 26.497 106.45 28.1434 106.45 29.9989C106.45 31.8544 106.049 33.5099 105.248 34.9652C104.466 36.4023 103.338 37.5302 101.863 38.3488C100.407 39.1493 98.7241 39.5495 96.8131 39.5495H90.1795V20.4483ZM96.8131 36.1386C98.5421 36.1386 99.8797 35.5837 100.826 34.474C101.791 33.3462 102.273 31.8544 102.273 29.9989C102.273 28.1434 101.791 26.6608 100.826 25.5511C99.8797 24.4232 98.5421 23.8593 96.8131 23.8593H94.2744V36.1386H96.8131Z" fill="#191B18" style="fill:#191B18;fill:color(display-p3 0.0980 0.1059 0.0941);fill-opacity:1;"/>
<path d="M89.5875 36.085V39.5505H87.622C86.8576 39.5505 86.257 39.4504 85.8202 39.2503C85.4017 39.0502 85.0104 38.7228 84.6464 38.268C83.1359 39.2321 81.3887 39.7142 79.405 39.7142C77.5669 39.7142 75.929 39.2958 74.4912 38.459C73.0535 37.6222 71.9342 36.467 71.1335 34.9935C70.3327 33.5018 69.9323 31.8373 69.9323 29.9999C69.9323 28.1626 70.3327 26.5072 71.1335 25.0336C71.9342 23.5419 73.0535 22.3777 74.4912 21.5409C75.929 20.7041 77.5669 20.2856 79.405 20.2856C81.2431 20.2856 82.8811 20.7041 84.3188 21.5409C85.7565 22.3777 86.8758 23.5419 87.6766 25.0336C88.4773 26.5072 88.8777 28.1626 88.8777 29.9999C88.8777 32.2739 88.2771 34.2568 87.076 35.9486C87.258 36.0395 87.4673 36.085 87.7039 36.085H89.5875ZM74.109 29.9999C74.109 31.2006 74.3274 32.2739 74.7642 33.2198C75.201 34.1658 75.8198 34.9116 76.6205 35.4574C77.4213 35.9849 78.3495 36.2487 79.405 36.2487C80.497 36.2487 81.4706 35.9486 82.326 35.3482L82.053 35.0208C81.8346 34.7297 81.6253 34.5205 81.4251 34.3932C81.2249 34.2477 80.9792 34.1749 80.6881 34.1749H78.9136V30.7094H80.9883C81.7163 30.7094 82.2714 30.8186 82.6536 31.0368C83.0358 31.2551 83.4179 31.6099 83.8001 32.1011L84.2369 32.6741C84.5281 31.8737 84.6737 30.9823 84.6737 29.9999C84.6737 28.7993 84.4553 27.726 84.0185 26.78C83.5817 25.8341 82.963 25.0973 82.1622 24.5698C81.3614 24.024 80.4424 23.7511 79.405 23.7511C78.3495 23.7511 77.4213 24.024 76.6205 24.5698C75.8198 25.0973 75.201 25.8341 74.7642 26.78C74.3274 27.726 74.109 28.7993 74.109 29.9999Z" fill="#191B18" style="fill:#191B18;fill:color(display-p3 0.0980 0.1059 0.0941);fill-opacity:1;"/>
<path d="M53.2675 20.4483H59.9011C61.812 20.4483 63.4954 20.8577 64.9514 21.6763C66.4255 22.4767 67.5539 23.6046 68.3364 25.0599C69.1372 26.497 69.5376 28.1434 69.5376 29.9989C69.5376 31.8544 69.1372 33.5099 68.3364 34.9652C67.5539 36.4023 66.4255 37.5302 64.9514 38.3488C63.4954 39.1493 61.812 39.5495 59.9011 39.5495H53.2675V20.4483ZM59.9011 36.1386C61.63 36.1386 62.9677 35.5837 63.914 34.474C64.8786 33.3462 65.3609 31.8544 65.3609 29.9989C65.3609 28.1434 64.8786 26.6608 63.914 25.5511C62.9677 24.4232 61.63 23.8593 59.9011 23.8593H57.3623V36.1386H59.9011Z" fill="#191B18" style="fill:#191B18;fill:color(display-p3 0.0980 0.1059 0.0941);fill-opacity:1;"/>
<path d="M36.6568 20.4483H43.2904C45.2013 20.4483 46.8847 20.8577 48.3407 21.6763C49.8148 22.4767 50.9432 23.6046 51.7257 25.0599C52.5265 26.497 52.9269 28.1434 52.9269 29.9989C52.9269 31.8544 52.5265 33.5099 51.7257 34.9652C50.9432 36.4023 49.8148 37.5302 48.3407 38.3488C46.8847 39.1493 45.2013 39.5495 43.2904 39.5495H36.6568V20.4483ZM43.2904 36.1386C45.0193 36.1386 46.357 35.5837 47.3033 34.474C48.2679 33.3462 48.7502 31.8544 48.7502 29.9989C48.7502 28.1434 48.2679 26.6608 47.3033 25.5511C46.357 24.4232 45.0193 23.8593 43.2904 23.8593H40.7516V36.1386H43.2904Z" fill="#191B18" style="fill:#191B18;fill:color(display-p3 0.0980 0.1059 0.0941);fill-opacity:1;"/>
<path d="M31.1 20.4483H35.1948V39.5495H31.1V20.4483Z" fill="#191B18" style="fill:#191B18;fill:color(display-p3 0.0980 0.1059 0.0941);fill-opacity:1;"/>
<path d="M111.991 36.085H150.1V39.0203H111.991V36.085Z" fill="#191B18" style="fill:#191B18;fill:color(display-p3 0.0980 0.1059 0.0941);fill-opacity:1;"/>
</svg>
