<svg width="181" height="60" viewBox="0 0 181 60" fill="none" xmlns="http://www.w3.org/2000/svg">
<path d="M34.8541 20.1099L31.5319 27.5947V20.1099H29.5717L26.5476 27.5947V20.1099H24.5873L21.2652 27.5947V20.1099H19.305L15.3971 28.8665V39.8901H16.8117L20.1338 32.4053V39.8901H22.094L25.1182 32.4053V39.8901H27.0784L30.4005 32.4053V39.8901H32.3608L36.2686 31.1335V20.1099H34.8541Z" fill="#191B18" style="fill:#191B18;fill:color(display-p3 0.0980 0.1059 0.0941);fill-opacity:1;"/>
<path d="M105.651 23.8408V20.8826H97.2134C95.0613 20.8826 93.316 22.6279 93.316 24.78V38.7826H96.522V32.2217C96.5213 31.7914 96.8697 31.4422 97.3007 31.4422H104.953V28.4576H96.5205V24.6202C96.5205 24.19 96.8689 23.8408 97.2992 23.8408H105.651Z" fill="#191B18" style="fill:#191B18;fill:color(display-p3 0.0980 0.1059 0.0941);fill-opacity:1;"/>
<path fill-rule="evenodd" clip-rule="evenodd" d="M87.7224 27.7401V20.9594L87.7216 20.9586H91.0586C91.0542 23.903 91.0544 26.3248 91.0546 29.0735L91.0547 38.7838H87.7333V37.0486L87.7222 37.0589L87.7104 37.0695L87.6912 37.0864C87.6706 37.1042 87.6574 37.1157 87.6484 37.1297C87.2345 37.7634 86.6506 38.1984 85.9803 38.5195C84.1602 39.3925 82.3464 39.2865 80.6003 38.348C79.4038 37.705 78.5425 36.6994 77.9649 35.4671C77.3374 34.1295 77.2143 32.7186 77.4006 31.2711C77.6095 29.6506 78.3367 28.2935 79.5434 27.1984C80.4312 26.3924 81.4772 25.9099 82.6706 25.7485C83.9965 25.5693 85.2413 25.7914 86.3895 26.4875C86.865 26.7751 87.2797 27.136 87.6071 27.5904C87.6253 27.6156 87.6446 27.6402 87.6703 27.6731L87.6961 27.7062L87.7224 27.7401ZM84.6193 36.2216C85.7293 36.1078 86.5672 35.5528 87.1768 34.6463L87.176 34.6455C87.7723 33.7592 87.9383 32.7638 87.77 31.7264C87.5276 30.2352 86.7247 29.1603 85.246 28.7199C83.8687 28.3099 82.6324 28.6404 81.6339 29.6857C80.9176 30.4355 80.5941 31.3577 80.6245 32.3944C80.6245 32.4439 80.6242 32.4934 80.6238 32.5429C80.623 32.6618 80.6222 32.7806 80.626 32.8995C80.6283 32.9544 80.6392 33.0089 80.65 33.0632C80.6544 33.0853 80.6589 33.1074 80.6627 33.1294C80.8817 34.3696 81.5357 35.3034 82.6543 35.8903C83.2669 36.2123 83.931 36.2926 84.6193 36.2216Z" fill="#191B18" style="fill:#191B18;fill:color(display-p3 0.0980 0.1059 0.0941);fill-opacity:1;"/>
<path d="M131.446 30.4096C131.363 29.5007 131.081 28.6581 130.555 27.9052C130.053 27.1873 129.41 26.6307 128.629 26.2355C128.007 25.9214 127.345 25.7374 126.653 25.6595C125.982 25.5839 125.307 25.5815 124.641 25.686C123.521 25.8606 122.516 26.2901 121.677 27.0742C121.153 27.5645 120.743 28.132 120.456 28.7899C120.111 29.5795 120 30.4135 119.998 31.2647C119.995 32.9926 119.995 34.7601 119.996 36.5108V36.5604C119.996 37.2515 119.997 37.9399 119.997 38.6222V38.7898H123.132C123.254 38.7898 123.316 38.7303 123.316 38.6113L123.316 36.8081C123.316 34.9825 123.316 33.1349 123.314 31.3317C123.314 30.9412 123.345 30.5562 123.45 30.1797C123.636 29.5124 124.005 28.9886 124.64 28.6768C125.001 28.4999 125.388 28.4477 125.783 28.45C126.135 28.4523 126.483 28.4999 126.805 28.6488C127.462 28.9536 127.853 29.482 128.046 30.1703C128.155 30.5601 128.183 30.9576 128.182 31.3606C128.18 33.0628 128.181 34.8045 128.181 36.5297L128.181 38.7812H131.499L131.5 36.8153C131.5 35.0463 131.501 33.2559 131.497 31.5087C131.497 31.1423 131.481 30.7752 131.447 30.4104L131.446 30.4096Z" fill="#191B18" style="fill:#191B18;fill:color(display-p3 0.0980 0.1059 0.0941);fill-opacity:1;"/>
<path d="M143.942 27.9053C144.468 28.6583 144.75 29.5009 144.833 30.4098L144.834 30.4106C144.868 30.7754 144.884 31.1425 144.884 31.5089C144.887 33.255 144.887 35.0443 144.887 36.8123L144.886 38.7814H141.568L141.568 36.5299C141.567 34.8047 141.567 33.0629 141.569 31.3608C141.57 30.9578 141.542 30.5602 141.433 30.1705C141.24 29.4822 140.849 28.9537 140.191 28.649C139.87 28.5001 139.522 28.4525 139.17 28.4502C138.775 28.4479 138.388 28.5001 138.027 28.677C137.392 28.9888 137.023 29.5126 136.837 30.1799C136.732 30.5563 136.701 30.9414 136.701 31.3319C136.703 33.1351 136.703 34.9827 136.703 36.8083L136.703 38.6115C136.703 38.7305 136.641 38.79 136.519 38.79H133.384V38.6224C133.384 37.934 133.383 37.2394 133.383 36.542V36.518C133.382 34.765 133.382 32.9951 133.385 31.2649C133.387 30.4137 133.498 29.5797 133.843 28.79C134.13 28.1322 134.54 27.5647 135.064 27.0744C135.903 26.2903 136.908 25.8608 138.028 25.6862C138.694 25.5817 139.369 25.584 140.04 25.6597C140.732 25.7376 141.393 25.9216 142.015 26.2357C142.797 26.6309 143.44 27.1874 143.942 27.9053Z" fill="#191B18" style="fill:#191B18;fill:color(display-p3 0.0980 0.1059 0.0941);fill-opacity:1;"/>
<path fill-rule="evenodd" clip-rule="evenodd" d="M155.482 26.1984C156.262 26.5686 156.892 27.1197 157.413 27.8025L157.412 27.8033C158.205 28.8431 158.608 30.0342 158.717 31.3258C158.747 31.679 158.749 32.0346 158.751 32.3904C158.752 32.6016 158.753 32.8127 158.76 33.0235C158.765 33.1911 158.702 33.234 158.545 33.2285C158.335 33.2208 158.124 33.2224 157.913 33.224C157.825 33.2247 157.737 33.2254 157.65 33.2254H149.207C149.316 33.9066 149.591 34.4733 150.028 34.9566C150.704 35.7049 151.577 36.0775 152.55 36.2295C153.633 36.3986 154.698 36.2957 155.74 35.9598C156.41 35.7439 157.043 35.4469 157.611 35.0221C157.653 34.9908 157.696 34.9609 157.748 34.9243L157.807 34.8833C157.809 34.9105 157.812 34.9349 157.815 34.9573C157.819 34.9992 157.823 35.0346 157.823 35.0696C157.824 35.3212 157.824 35.5728 157.823 35.8243C157.823 36.4276 157.823 37.0306 157.827 37.6341C157.828 37.7705 157.779 37.8415 157.667 37.9124C156.712 38.5204 155.656 38.8275 154.548 38.9927C153.858 39.0956 153.168 39.1292 152.472 39.0715C150.952 38.9452 149.581 38.4471 148.402 37.4494C147.481 36.6707 146.802 35.7291 146.414 34.5824C146.183 33.8981 146.084 33.1919 146.075 32.4693C146.063 31.4567 146.236 30.4863 146.651 29.5603C147.142 28.4635 147.892 27.5796 148.84 26.8586C149.735 26.1781 150.741 25.7782 151.857 25.6566C153.113 25.5187 154.327 25.6496 155.482 26.1984ZM150.301 29.2266C149.805 29.7107 149.499 30.3047 149.304 30.9766H155.635L155.621 30.8828C155.61 30.8134 155.6 30.7511 155.591 30.689C155.435 29.6055 154.454 28.582 153.376 28.3778C152.213 28.158 151.171 28.3801 150.301 29.2266Z" fill="#191B18" style="fill:#191B18;fill:color(display-p3 0.0980 0.1059 0.0941);fill-opacity:1;"/>
<path d="M75.3084 25.98C74.6212 25.9844 73.9335 25.9842 73.2461 25.9839C72.9597 25.9838 72.6732 25.9837 72.3869 25.9839C72.3459 25.9839 72.3046 25.987 72.2647 25.99C72.2447 25.9915 72.2251 25.993 72.2061 25.9941V38.7877H75.5072C75.5087 38.7643 75.5102 38.7433 75.5117 38.7239C75.5147 38.682 75.5173 38.6468 75.5173 38.6123C75.5173 34.4701 75.5173 30.3272 75.5212 26.185C75.5212 26.019 75.4651 25.9793 75.3084 25.98Z" fill="#191B18" style="fill:#191B18;fill:color(display-p3 0.0980 0.1059 0.0941);fill-opacity:1;"/>
<path d="M64.1003 23.1256C64.8369 21.7537 66.2306 21.1013 67.6789 21.5019C69.1271 21.9026 69.7445 23.2308 69.7445 24.8069V38.7175H66.7092V24.7297L60.2824 37.3059C59.6908 38.408 58.626 39.0464 57.4794 39.0464C57.3586 39.0464 57.237 39.0386 57.1146 39.0246C55.4481 38.829 54.2087 37.3059 54.2087 35.5411V24.782L46.7592 38.7892H43.1569L51.5675 23.1911C52.3002 21.8129 53.932 21.1551 55.3834 21.5534C56.8355 21.9517 57.5994 23.2807 57.5994 24.8599V35.6237L64.1003 23.1256Z" fill="#191B18" style="fill:#191B18;fill:color(display-p3 0.0980 0.1059 0.0941);fill-opacity:1;"/>
<path d="M118.219 26.0829L118.219 38.7908H114.92V37.3698C114.902 37.3857 114.886 37.3989 114.873 37.4103L114.862 37.4191C114.834 37.4428 114.815 37.4587 114.8 37.4781C114.13 38.3371 113.242 38.8321 112.181 39.0192C111.209 39.1907 110.25 39.1244 109.335 38.7401C108.003 38.1797 107.177 37.1671 106.851 35.7758C106.72 35.22 106.66 34.6362 106.656 34.0648C106.641 32.1687 106.643 30.3142 106.645 28.4405V28.4373C106.646 27.7494 106.647 27.0589 106.647 26.3628V26.0798H109.977V32.9626C109.977 33.4747 109.983 33.9869 110.14 34.4818C110.488 35.577 111.31 36.1639 112.461 36.1437C113.709 36.1218 114.618 35.3096 114.853 33.99C114.898 33.7366 114.903 33.4747 114.904 33.2159C114.907 31.4218 114.907 29.6748 114.907 27.9017L114.906 26.0829H118.219Z" fill="#191B18" style="fill:#191B18;fill:color(display-p3 0.0980 0.1059 0.0941);fill-opacity:1;"/>
<path d="M163.138 34.8434V21.4278H159.855V34.8925C159.855 37.0447 161.6 38.7899 163.753 38.7899H165.803V35.6229H163.918C163.488 35.6229 163.138 35.2737 163.138 34.8434Z" fill="#191B18" style="fill:#191B18;fill:color(display-p3 0.0980 0.1059 0.0941);fill-opacity:1;"/>
<path d="M72.0685 22.9098C72.0716 23.9122 72.8682 24.6917 73.8948 24.6964C74.9682 24.7011 75.7562 23.9325 75.7539 22.8833C75.7523 21.8684 74.9611 21.0991 73.9127 21.0913C72.8862 21.0843 72.0654 21.8926 72.0685 22.9098Z" fill="#191B18" style="fill:#191B18;fill:color(display-p3 0.0980 0.1059 0.0941);fill-opacity:1;"/>
</svg>
