<svg width="181" height="60" viewBox="0 0 181 60" fill="none" xmlns="http://www.w3.org/2000/svg">
<path d="M30.2209 37.1192C28.5101 36.1359 26.4056 36.1359 24.6949 37.1192L20.746 39.389C18.2626 40.8165 15.1644 39.0238 15.1644 36.1593L15.1644 23.8406C15.1644 20.9761 18.2626 19.1834 20.746 20.6109L24.6949 22.8807C26.4057 23.8641 28.5102 23.8641 30.221 22.8807L34.1698 20.6109C36.6532 19.1835 39.7514 20.9761 39.7514 23.8406V36.1593C39.7514 39.0238 36.6532 40.8165 34.1698 39.389L30.2209 37.1192Z" fill="#191B18" style="fill:#191B18;fill:color(display-p3 0.0980 0.1059 0.0941);fill-opacity:1;"/>
<path d="M162.888 30.2184C162.881 29.2046 162.661 28.4333 162.227 27.9043C161.794 27.3681 161.188 27.1 160.409 27.1C159.91 27.1 159.439 27.2579 158.999 27.5738C158.558 27.8897 158.202 28.3194 157.93 28.863C157.665 29.4066 157.533 30.0016 157.533 30.6481V37.3808H155.219V30.2184C155.219 29.2046 154.999 28.4333 154.558 27.9043C154.125 27.3681 153.515 27.1 152.729 27.1C152.229 27.1 151.755 27.2579 151.307 27.5738C150.867 27.8897 150.51 28.3194 150.239 28.863C149.974 29.4066 149.842 30.0016 149.842 30.6481V37.3808H147.484V25.1826H149.842V26.3837C150.775 25.414 151.888 24.9292 153.181 24.9292C154.687 24.9292 155.814 25.594 156.563 26.9237C157.048 26.2845 157.632 25.7924 158.316 25.4471C159.006 25.1018 159.748 24.9292 160.541 24.9292C161.386 24.9292 162.169 25.1386 162.888 25.5573C163.608 25.9687 164.178 26.5343 164.596 27.2542C165.022 27.9741 165.235 28.7712 165.235 29.6454V37.3808H162.899L162.888 30.2184Z" fill="#191B18" style="fill:#191B18;fill:color(display-p3 0.0980 0.1059 0.0941);fill-opacity:1;"/>
<path d="M140.441 37.6459C139.383 37.6459 138.443 37.4182 137.62 36.9627C136.804 36.5073 136.169 35.8681 135.714 35.0454C135.265 34.2153 135.041 33.2676 135.041 32.2025V25.1943H137.355V31.905C137.355 32.6322 137.48 33.2676 137.73 33.8113C137.987 34.3475 138.347 34.7626 138.81 35.0564C139.273 35.3429 139.813 35.4862 140.43 35.4862C141.054 35.4862 141.598 35.3429 142.061 35.0564C142.531 34.7626 142.891 34.3475 143.14 33.8113C143.398 33.2676 143.526 32.6322 143.526 31.905V25.1943H145.84V32.2025C145.84 33.275 145.616 34.2226 145.168 35.0454C144.72 35.8681 144.084 36.5073 143.262 36.9627C142.446 37.4182 141.506 37.6459 140.441 37.6459Z" fill="#191B18" style="fill:#191B18;fill:color(display-p3 0.0980 0.1059 0.0941);fill-opacity:1;"/>
<path d="M131.993 37.3811C131.133 37.3811 130.377 37.2048 129.723 36.8522C129.069 36.4923 128.562 35.9854 128.202 35.3316C127.842 34.6704 127.662 33.8991 127.662 33.0176L127.662 27.354H125.646V25.1943H127.662L127.662 22.3533L129.943 22.3643L129.943 25.1943H133.536V27.354H129.943L129.943 32.9625C129.943 33.6751 130.142 34.2223 130.538 34.6043C130.935 34.9863 131.501 35.1773 132.235 35.1773H133.536V37.3811H131.993Z" fill="#191B18" style="fill:#191B18;fill:color(display-p3 0.0980 0.1059 0.0941);fill-opacity:1;"/>
<path d="M122.537 30.5602C122.537 29.4216 122.284 28.5621 121.777 27.9817C121.277 27.394 120.554 27.1002 119.606 27.1002C119.019 27.1002 118.475 27.2655 117.975 27.5961C117.483 27.9193 117.09 28.36 116.796 28.9183C116.51 29.4766 116.367 30.0864 116.367 30.7475V37.381H114.042V25.1829H116.179V26.5492C116.649 26.0056 117.186 25.6016 117.788 25.3371C118.398 25.0653 119.088 24.9294 119.86 24.9294C120.778 24.9294 121.619 25.1572 122.383 25.6126C123.147 26.0681 123.749 26.6925 124.19 27.4859C124.631 28.2792 124.851 29.1608 124.851 30.1304V37.381H122.537V30.5602Z" fill="#191B18" style="fill:#191B18;fill:color(display-p3 0.0980 0.1059 0.0941);fill-opacity:1;"/>
<path d="M102.561 32.2348C102.679 32.8593 102.914 33.4102 103.266 33.8877C103.626 34.3579 104.074 34.7215 104.611 34.9786C105.147 35.2357 105.742 35.3643 106.396 35.3643C107.189 35.3643 107.847 35.2247 108.368 34.9455C108.897 34.6664 109.345 34.2073 109.713 33.5682H112.159C111.571 34.9639 110.8 35.9923 109.845 36.6535C108.897 37.3146 107.747 37.6452 106.396 37.6452C105.235 37.6452 104.181 37.3697 103.233 36.8188C102.278 36.2605 101.533 35.4965 100.996 34.5268C100.453 33.5424 100.181 32.4626 100.181 31.2872C100.181 30.0971 100.449 29.0209 100.985 28.0586C101.529 27.0742 102.278 26.3066 103.233 25.7556C104.181 25.2047 105.235 24.9292 106.396 24.9292C107.571 24.9292 108.636 25.212 109.591 25.7777C110.554 26.358 111.285 27.1367 111.784 28.1137C112.284 29.0834 112.533 30.1596 112.533 31.3423C112.533 31.57 112.515 31.8675 112.478 32.2348H102.561ZM106.396 27.1551C105.455 27.1551 104.647 27.4158 103.972 27.9374C103.296 28.459 102.844 29.1642 102.616 30.0531H110.153C109.926 29.1642 109.474 28.459 108.798 27.9374C108.129 27.4158 107.329 27.1551 106.396 27.1551Z" fill="#191B18" style="fill:#191B18;fill:color(display-p3 0.0980 0.1059 0.0941);fill-opacity:1;"/>
<path d="M96.4548 30.2184C96.4475 29.2046 96.2271 28.4333 95.7937 27.9043C95.3603 27.3681 94.7542 27.1 93.9755 27.1C93.476 27.1 93.0059 27.2579 92.5651 27.5738C92.1243 27.8897 91.7681 28.3194 91.4963 28.863C91.2318 29.4066 91.0996 30.0016 91.0996 30.6481V37.3808H88.7856V30.2184C88.7856 29.2046 88.5652 28.4333 88.1244 27.9043C87.691 27.3681 87.0813 27.1 86.2952 27.1C85.7957 27.1 85.3219 27.2579 84.8738 27.5738C84.433 27.8897 84.0767 28.3194 83.8049 28.863C83.5405 29.4066 83.4083 30.0016 83.4083 30.6481V37.3808H81.0502V25.1826H83.4083V26.3837C84.3412 25.414 85.4541 24.9292 86.747 24.9292C88.253 24.9292 89.3806 25.594 90.1299 26.9237C90.6147 26.2845 91.1987 25.7924 91.8819 25.4471C92.5724 25.1018 93.3144 24.9292 94.1078 24.9292C94.9526 24.9292 95.7349 25.1386 96.4548 25.5573C97.1747 25.9687 97.7441 26.5343 98.1628 27.2542C98.5889 27.9741 98.8019 28.7712 98.8019 29.6454V37.3808H96.4659L96.4548 30.2184Z" fill="#191B18" style="fill:#191B18;fill:color(display-p3 0.0980 0.1059 0.0941);fill-opacity:1;"/>
<path d="M78.6569 34.5381C78.0986 35.5151 77.3199 36.2754 76.3208 36.819C75.3291 37.37 74.2015 37.6455 72.938 37.6455C71.7773 37.6455 70.7085 37.3663 69.7314 36.808C68.7618 36.2497 67.9904 35.4931 67.4174 34.5381C66.8518 33.5757 66.569 32.5179 66.569 31.3646C66.569 30.1011 66.8444 28.9881 67.3954 28.0258C67.9537 27.0561 68.7361 26.2958 69.7425 25.7449C70.7268 25.2012 71.8214 24.9294 73.0261 24.9294C74.2309 24.9294 75.3255 25.2049 76.3098 25.7559C77.3162 26.2995 78.0986 27.0561 78.6569 28.0258C79.2152 29.0028 79.4943 30.09 79.4943 31.2874C79.4943 32.4775 79.2152 33.561 78.6569 34.5381ZM73.0261 27.1002C72.2695 27.1002 71.568 27.2839 70.9215 27.6512C70.2751 28.0185 69.7608 28.518 69.3788 29.1497C69.0042 29.7815 68.8169 30.4757 68.8169 31.2324C68.8169 32.3857 69.2393 33.3811 70.0841 34.2185C70.9582 35.0927 71.9573 35.5298 73.0812 35.5298C73.8379 35.5298 74.5358 35.3388 75.1749 34.9568C75.814 34.5675 76.3208 34.0496 76.6955 33.4031C77.0701 32.7493 77.2575 32.0441 77.2575 31.2874C77.2575 30.5235 77.0665 29.8219 76.6845 29.1828C76.3098 28.5437 75.7956 28.0368 75.1418 27.6622C74.4954 27.2875 73.7901 27.1002 73.0261 27.1002Z" fill="#191B18" style="fill:#191B18;fill:color(display-p3 0.0980 0.1059 0.0941);fill-opacity:1;"/>
<path d="M62.8425 30.2186C62.8352 29.2048 62.6148 28.4335 62.1814 27.9046C61.748 27.3683 61.1419 27.1002 60.3632 27.1002C59.8637 27.1002 59.3936 27.2581 58.9528 27.574C58.512 27.8899 58.1557 28.3196 57.8839 28.8633C57.6195 29.4069 57.4873 30.0019 57.4873 30.6483V37.381H55.1733V30.2186C55.1733 29.2048 54.9529 28.4335 54.5121 27.9046C54.0787 27.3683 53.469 27.1002 52.6829 27.1002C52.1834 27.1002 51.7096 27.2581 51.2615 27.574C50.8207 27.8899 50.4644 28.3196 50.1926 28.8633C49.9282 29.4069 49.7959 30.0019 49.7959 30.6483V37.381H47.4379V25.1829H49.7959V26.384C50.7289 25.4143 51.8418 24.9294 53.1347 24.9294C54.6407 24.9294 55.7683 25.5943 56.5176 26.9239C57.0024 26.2848 57.5864 25.7926 58.2696 25.4473C58.9601 25.1021 59.7021 24.9294 60.4955 24.9294C61.3403 24.9294 62.1226 25.1388 62.8425 25.5575C63.5624 25.9689 64.1318 26.5346 64.5505 27.2545C64.9766 27.9744 65.1896 28.7714 65.1896 29.6456V37.381H62.8535L62.8425 30.2186Z" fill="#191B18" style="fill:#191B18;fill:color(display-p3 0.0980 0.1059 0.0941);fill-opacity:1;"/>
</svg>
