<svg width="181" height="60" viewBox="0 0 181 60" fill="none" xmlns="http://www.w3.org/2000/svg">
<path fill-rule="evenodd" clip-rule="evenodd" d="M131.638 30.0129V25.5267L146.2 25.5422V41.9259H131.702V31.951H141.574V30.0129H131.638ZM141.574 35.4655H136.328V37.507H141.574V35.4655Z" fill="#191B18" style="fill:#191B18;fill:color(display-p3 0.0980 0.1059 0.0941);fill-opacity:1;"/>
<path d="M123.149 41.9001H118.42V25.5422H129.222V30.0129H123.149V41.9001Z" fill="#191B18" style="fill:#191B18;fill:color(display-p3 0.0980 0.1059 0.0941);fill-opacity:1;"/>
<path d="M115.577 41.9259H101.08V25.5422H105.705V37.507H110.951V25.5422H115.577V41.9259Z" fill="#191B18" style="fill:#191B18;fill:color(display-p3 0.0980 0.1059 0.0941);fill-opacity:1;"/>
<path d="M98.6762 41.9001H86.6854V25.5422H98.6762V30.0129H91.3112V37.507H98.6762V41.9001Z" fill="#191B18" style="fill:#191B18;fill:color(display-p3 0.0980 0.1059 0.0941);fill-opacity:1;"/>
<path d="M83.8169 41.9259H70.9475V37.507H79.1137V35.4138H70.9475V25.5681H83.8169V30.0129H75.6508V32.0027H83.8169V41.9259Z" fill="#191B18" style="fill:#191B18;fill:color(display-p3 0.0980 0.1059 0.0941);fill-opacity:1;"/>
<path fill-rule="evenodd" clip-rule="evenodd" d="M68.3633 41.9259H52.8063V18.074H57.5096V25.5681H68.3633V41.9259ZM57.5096 30.0129V37.507H63.7376V30.0129H57.5096Z" fill="#191B18" style="fill:#191B18;fill:color(display-p3 0.0980 0.1059 0.0941);fill-opacity:1;"/>
<path fill-rule="evenodd" clip-rule="evenodd" d="M34.2 41.9259V25.5681H49.7569V41.9259H34.2ZM38.9032 30.0129V37.507H45.1312V30.0129H38.9032Z" fill="#191B18" style="fill:#191B18;fill:color(display-p3 0.0980 0.1059 0.0941);fill-opacity:1;"/>
</svg>
