<svg width="181" height="60" viewBox="0 0 181 60" fill="none" xmlns="http://www.w3.org/2000/svg">
<path fill-rule="evenodd" clip-rule="evenodd" d="M156.404 20.9436C156.404 20.7834 156.404 20.7033 156.432 20.6449C156.458 20.5903 156.493 20.5524 156.545 20.5216C156.6 20.4887 156.688 20.4808 156.862 20.4651C159.278 20.2475 161.202 18.3234 161.42 15.9074C161.435 15.733 161.443 15.6459 161.476 15.5902C161.507 15.5382 161.545 15.5035 161.6 15.4775C161.658 15.4497 161.738 15.4497 161.898 15.4497H162.906C163.066 15.4497 163.147 15.4497 163.208 15.4809C163.262 15.5083 163.305 15.5521 163.333 15.606C163.364 15.6672 163.364 15.7472 163.364 15.9072C163.364 16.9543 163.364 18.1891 163.364 19.1123C163.364 19.5928 163.364 19.8331 163.458 20.0168C163.54 20.1783 163.671 20.3097 163.833 20.392C164.017 20.4856 164.257 20.4856 164.738 20.4856H167.942C168.102 20.4856 168.183 20.4856 168.244 20.5168C168.298 20.5443 168.341 20.5881 168.369 20.6419C168.4 20.7032 168.4 20.7833 168.4 20.9436V21.9515C168.4 22.1117 168.4 22.1918 168.372 22.2502C168.346 22.3048 168.312 22.3427 168.26 22.3735C168.204 22.4064 168.117 22.4143 167.942 22.43C165.526 22.6476 163.602 24.5717 163.385 26.9877C163.369 27.1621 163.361 27.2492 163.328 27.3049C163.297 27.3569 163.259 27.3916 163.205 27.4176C163.146 27.4454 163.066 27.4454 162.906 27.4454H161.898C161.738 27.4454 161.658 27.4454 161.597 27.4142C161.543 27.3868 161.499 27.343 161.471 27.2891C161.44 27.2279 161.44 27.1479 161.44 26.9879C161.44 25.9408 161.44 24.706 161.44 23.7828C161.44 23.3023 161.44 23.062 161.347 22.8783C161.264 22.7168 161.133 22.5854 160.971 22.5031C160.788 22.4095 160.547 22.4095 160.066 22.4095H156.862C156.702 22.4095 156.622 22.4095 156.561 22.3783C156.507 22.3508 156.463 22.307 156.435 22.2532C156.404 22.1919 156.404 22.1118 156.404 21.9515V20.9436Z" fill="#191B18" style="fill:#191B18;fill:color(display-p3 0.0980 0.1059 0.0941);fill-opacity:1;"/>
<path d="M150.989 37.2583C150.989 39.4559 152.048 40.4947 154.226 40.4947H156.403V37.6978H155.145C154.445 37.6978 154.186 37.4381 154.186 36.7389V32.8233H156.184V30.0264H154.186V27.4692H150.989V30.0264H149.211V32.8233H150.989V37.2583Z" fill="#191B18" style="fill:#191B18;fill:color(display-p3 0.0980 0.1059 0.0941);fill-opacity:1;"/>
<path d="M138.762 30.0264V40.4948H141.958V34.8211C141.958 33.3827 142.697 32.6635 143.876 32.6635C144.875 32.6635 145.514 33.2428 145.514 34.3815V40.4948H148.711V33.8821C148.711 31.4049 147.592 29.8466 145.115 29.8466C143.696 29.8466 142.418 30.3061 141.838 31.4848V30.0264H138.762Z" fill="#191B18" style="fill:#191B18;fill:color(display-p3 0.0980 0.1059 0.0941);fill-opacity:1;"/>
<path fill-rule="evenodd" clip-rule="evenodd" d="M132.588 40.7145C129.432 40.7145 127.214 38.8166 127.214 35.4004C127.214 32.3438 128.992 29.8466 132.688 29.8466C135.705 29.8466 137.663 31.5647 137.663 35.0208V36.1596H130.311C130.511 37.5181 131.21 38.2373 132.748 38.2373C133.707 38.2373 134.326 37.9576 134.486 37.1585H137.603C137.203 39.5758 135.046 40.7145 132.588 40.7145ZM130.371 34.1818H134.666C134.666 32.8832 133.987 32.3238 132.708 32.3238C131.39 32.3238 130.63 32.9232 130.371 34.1818Z" fill="#191B18" style="fill:#191B18;fill:color(display-p3 0.0980 0.1059 0.0941);fill-opacity:1;"/>
<path fill-rule="evenodd" clip-rule="evenodd" d="M115.374 40.7145C115.774 43.2917 118.071 44.5503 120.768 44.5503C123.625 44.5503 126.222 43.0919 126.222 39.6557V30.0264H123.066V31.3849C122.546 30.4259 121.528 29.8466 120.049 29.8466C117.512 29.8466 115.234 31.5847 115.234 35.1207C115.234 38.6568 117.512 40.1551 119.869 40.1551C121.548 40.1551 122.606 39.396 123.126 38.457V40.0353C123.126 41.2739 122.327 42.093 120.788 42.093C119.47 42.093 118.751 41.5136 118.611 40.7145H115.374ZM120.728 37.5181C119.49 37.5181 118.471 36.8188 118.471 35.1607C118.471 33.5225 119.49 32.8033 120.748 32.8033C122.007 32.8033 123.026 33.5225 123.026 35.1607C123.026 36.8188 121.967 37.5181 120.728 37.5181Z" fill="#191B18" style="fill:#191B18;fill:color(display-p3 0.0980 0.1059 0.0941);fill-opacity:1;"/>
<path d="M106.138 26.2906V40.4948H109.335V26.2906H106.138Z" fill="#191B18" style="fill:#191B18;fill:color(display-p3 0.0980 0.1059 0.0941);fill-opacity:1;"/>
<path d="M101.143 40.4948V26.2906H104.339V40.4948H101.143Z" fill="#191B18" style="fill:#191B18;fill:color(display-p3 0.0980 0.1059 0.0941);fill-opacity:1;"/>
<path fill-rule="evenodd" clip-rule="evenodd" d="M89.5953 35.4004C89.5953 38.8166 91.8128 40.7145 94.9694 40.7145C97.4267 40.7145 99.5843 39.5758 99.9839 37.1585H96.8673C96.7075 37.9576 96.0882 38.2373 95.1292 38.2373C93.5909 38.2373 92.8917 37.5181 92.6919 36.1596H100.044V35.0208C100.044 31.5647 98.086 29.8466 95.0693 29.8466C91.3733 29.8466 89.5953 32.3438 89.5953 35.4004ZM97.0471 34.1818H92.7518C93.0115 32.9232 93.7707 32.3238 95.0893 32.3238C96.3679 32.3238 97.0471 32.8832 97.0471 34.1818Z" fill="#191B18" style="fill:#191B18;fill:color(display-p3 0.0980 0.1059 0.0941);fill-opacity:1;"/>
<path d="M87.0275 40.4947C84.8499 40.4947 83.791 39.4559 83.791 37.2583V32.8233H82.013V30.0264H83.791V27.4692H86.9875V30.0264H88.9854V32.8233H86.9875V36.7389C86.9875 37.4381 87.2473 37.6978 87.9465 37.6978H89.2051V40.4947H87.0275Z" fill="#191B18" style="fill:#191B18;fill:color(display-p3 0.0980 0.1059 0.0941);fill-opacity:1;"/>
<path d="M71.5635 30.0264V40.4948H74.76V34.8211C74.76 33.3827 75.4992 32.6635 76.6779 32.6635C77.6768 32.6635 78.3161 33.2428 78.3161 34.3815V40.4948H81.5126V33.8821C81.5126 31.4049 80.3938 29.8466 77.9165 29.8466C76.4981 29.8466 75.2195 30.3061 74.6401 31.4848V30.0264H71.5635Z" fill="#191B18" style="fill:#191B18;fill:color(display-p3 0.0980 0.1059 0.0941);fill-opacity:1;"/>
<path d="M59.3097 30.0264V40.4948H62.5062V35.4803C62.5062 33.8022 63.1255 33.0231 64.7238 33.0231H65.8625V29.9065H64.8037C63.5451 29.9065 62.666 30.7057 62.3863 31.8644V30.0264H59.3097Z" fill="#191B18" style="fill:#191B18;fill:color(display-p3 0.0980 0.1059 0.0941);fill-opacity:1;"/>
<path fill-rule="evenodd" clip-rule="evenodd" d="M53.1363 40.7145C49.9798 40.7145 47.7622 38.8166 47.7622 35.4004C47.7622 32.3438 49.5403 29.8466 53.2362 29.8466C56.2529 29.8466 58.2108 31.5647 58.2108 35.0208V36.1596H50.8588C51.0586 37.5181 51.7579 38.2373 53.2962 38.2373C54.2551 38.2373 54.8744 37.9576 55.0343 37.1585H58.1509C57.7513 39.5758 55.5937 40.7145 53.1363 40.7145ZM50.9188 34.1818H55.2141C55.2141 32.8832 54.5348 32.3238 53.2562 32.3238C51.9377 32.3238 51.1785 32.9232 50.9188 34.1818Z" fill="#191B18" style="fill:#191B18;fill:color(display-p3 0.0980 0.1059 0.0941);fill-opacity:1;"/>
<path fill-rule="evenodd" clip-rule="evenodd" d="M36.1374 44.5503V30.0264H39.2141V31.7045C39.7335 30.5458 40.8922 29.8466 42.4505 29.8466C45.0477 29.8466 47.1454 31.6646 47.1454 35.1607C47.1454 38.7367 44.9678 40.4948 42.4106 40.4948C40.8722 40.4948 39.8733 39.8355 39.3339 38.9964V44.5503H36.1374ZM41.6314 37.538C40.4327 37.538 39.314 36.8188 39.314 35.1607C39.314 33.5025 40.4128 32.8233 41.6314 32.8233C42.8501 32.8233 43.9089 33.5025 43.9089 35.1607C43.9089 36.8188 42.8301 37.538 41.6314 37.538Z" fill="#191B18" style="fill:#191B18;fill:color(display-p3 0.0980 0.1059 0.0941);fill-opacity:1;"/>
<path d="M28.695 40.7146C26.2976 40.7146 25.059 39.1563 25.059 36.6791V30.0264H28.2555V36.2395C28.2555 37.3783 28.8748 37.9576 29.8737 37.9576C30.8926 37.9576 31.6118 37.2384 31.6118 35.8V30.0264H34.8083V40.4948H31.8515V38.7567C31.3321 40.1951 30.0935 40.7146 28.695 40.7146Z" fill="#191B18" style="fill:#191B18;fill:color(display-p3 0.0980 0.1059 0.0941);fill-opacity:1;"/>
<path d="M12.4003 35.5602C12.5201 39.1163 15.4769 40.8543 18.5735 40.8543C21.5303 40.8543 24.1074 39.2561 24.1074 36.2395C24.1074 34.0619 22.7689 33.023 19.992 32.4037L18.094 31.9842C16.9553 31.7245 16.1162 31.4048 16.1162 30.4259C16.1162 29.5869 16.6956 29.0475 18.154 29.0475C19.4925 29.0475 20.3715 29.5069 20.5913 30.8455H23.9077C23.7878 27.7889 21.3505 26.1707 18.2339 26.1707C15.2771 26.1707 12.7998 27.5691 12.7998 30.6457C12.7998 33.063 14.3182 34.2017 17.2749 34.841L19.1129 35.2406C20.1118 35.4603 20.7711 35.8199 20.7711 36.5991C20.7711 37.4381 20.1118 37.9775 18.6334 37.9775C16.9353 37.9775 16.0163 37.2583 15.7166 35.5602H12.4003Z" fill="#191B18" style="fill:#191B18;fill:color(display-p3 0.0980 0.1059 0.0941);fill-opacity:1;"/>
<path d="M66.8237 40.4952V30.0269H70.0202V40.4952H66.8237Z" fill="#191B18" style="fill:#191B18;fill:color(display-p3 0.0980 0.1059 0.0941);fill-opacity:1;"/>
<path d="M111.032 40.4952V30.0269H114.229V40.4952H111.032Z" fill="#191B18" style="fill:#191B18;fill:color(display-p3 0.0980 0.1059 0.0941);fill-opacity:1;"/>
<path d="M68.4233 29.2037C67.4523 29.2037 66.657 28.4166 66.657 27.4456V27.4456C66.657 26.4746 67.4523 25.6875 68.4233 25.6875V25.6875C69.3942 25.6875 70.1896 26.4746 70.1896 27.4456V27.4456C70.1896 28.4166 69.3942 29.2037 68.4233 29.2037V29.2037Z" fill="#191B18" style="fill:#191B18;fill:color(display-p3 0.0980 0.1059 0.0941);fill-opacity:1;"/>
<path d="M112.632 29.2037C111.661 29.2037 110.865 28.4166 110.865 27.4456V27.4456C110.865 26.4746 111.661 25.6875 112.632 25.6875V25.6875C113.603 25.6875 114.398 26.4746 114.398 27.4456V27.4456C114.398 28.4166 113.603 29.2037 112.632 29.2037V29.2037Z" fill="#191B18" style="fill:#191B18;fill:color(display-p3 0.0980 0.1059 0.0941);fill-opacity:1;"/>
</svg>
