<svg width="180" height="60" viewBox="0 0 180 60" fill="none" xmlns="http://www.w3.org/2000/svg">
<path d="M132.701 38.9682V33.0089L125.687 20.7693H130.704L134.802 28.5701H135.091L139.163 20.7693H144.154L137.14 33.0089V38.9682H132.701Z" fill="#191B18" style="fill:#191B18;fill:color(display-p3 0.0980 0.1059 0.0941);fill-opacity:1;"/>
<path d="M113.019 38.9682V24.5778H107.029V20.7693H123.5V24.5778H117.484V38.9682H113.019Z" fill="#191B18" style="fill:#191B18;fill:color(display-p3 0.0980 0.1059 0.0941);fill-opacity:1;"/>
<path d="M99.5194 38.9682V20.7693H104.011V38.9682H99.5194Z" fill="#191B18" style="fill:#191B18;fill:color(display-p3 0.0980 0.1059 0.0941);fill-opacity:1;"/>
<path d="M82.7301 38.9682V20.7693H87.222V35.1334H96.5211V38.9682H82.7301Z" fill="#191B18" style="fill:#191B18;fill:color(display-p3 0.0980 0.1059 0.0941);fill-opacity:1;"/>
<path d="M74.7911 38.9682V20.7693H79.283V38.9682H74.7911Z" fill="#191B18" style="fill:#191B18;fill:color(display-p3 0.0980 0.1059 0.0941);fill-opacity:1;"/>
<path d="M61.3303 38.9682V24.5778H55.3411V20.7693H71.8115V24.5778H65.796V38.9682H61.3303Z" fill="#191B18" style="fill:#191B18;fill:color(display-p3 0.0980 0.1059 0.0941);fill-opacity:1;"/>
<path d="M41.2396 39.2308C38.2609 39.2308 35.8462 36.8164 35.8462 33.8381V20.7693H40.3118V34.7706H47.8772V20.7693H52.3428V33.8381C52.3428 36.8164 49.9281 39.2308 46.9494 39.2308H41.2396Z" fill="#191B18" style="fill:#191B18;fill:color(display-p3 0.0980 0.1059 0.0941);fill-opacity:1;"/>
</svg>
